<mxfile host="app.diagrams.net" agent="Mozilla/5.0 (Windows NT 10.0; Win64; x64) AppleWebKit/537.36 (KHTML, like Gecko) Chrome/136.0.0.0 Safari/537.36" version="27.0.6">
  <diagram name="Strona-1" id="qYq6OFuZ9AcvVsh4jo1y">
    <mxGraphModel dx="1833" dy="2629" grid="1" gridSize="10" guides="1" tooltips="1" connect="1" arrows="1" fold="1" page="1" pageScale="1" pageWidth="900" pageHeight="1600" math="0" shadow="0">
      <root>
        <mxCell id="0" />
        <mxCell id="1" parent="0" />
        <mxCell id="PnFw1EJxxLD10fFxVw26-15" value="Github actions" style="edgeStyle=orthogonalEdgeStyle;rounded=0;orthogonalLoop=1;jettySize=auto;html=1;" edge="1" parent="1" source="PnFw1EJxxLD10fFxVw26-2" target="PnFw1EJxxLD10fFxVw26-3">
          <mxGeometry relative="1" as="geometry" />
        </mxCell>
        <mxCell id="PnFw1EJxxLD10fFxVw26-2" value="Github repository" style="rounded=0;whiteSpace=wrap;html=1;" vertex="1" parent="1">
          <mxGeometry x="310" y="30" width="120" height="60" as="geometry" />
        </mxCell>
        <mxCell id="PnFw1EJxxLD10fFxVw26-17" style="edgeStyle=orthogonalEdgeStyle;rounded=0;orthogonalLoop=1;jettySize=auto;html=1;" edge="1" parent="1" source="PnFw1EJxxLD10fFxVw26-3" target="PnFw1EJxxLD10fFxVw26-16">
          <mxGeometry relative="1" as="geometry" />
        </mxCell>
        <mxCell id="PnFw1EJxxLD10fFxVw26-46" value="Builds&lt;div&gt;application&amp;nbsp;&lt;/div&gt;&lt;div&gt;image&lt;/div&gt;" style="edgeStyle=orthogonalEdgeStyle;rounded=0;orthogonalLoop=1;jettySize=auto;html=1;" edge="1" parent="1" source="PnFw1EJxxLD10fFxVw26-3" target="PnFw1EJxxLD10fFxVw26-16">
          <mxGeometry relative="1" as="geometry" />
        </mxCell>
        <mxCell id="PnFw1EJxxLD10fFxVw26-3" value="Argo workflow" style="rounded=0;whiteSpace=wrap;html=1;" vertex="1" parent="1">
          <mxGeometry x="40" y="140" width="120" height="60" as="geometry" />
        </mxCell>
        <mxCell id="PnFw1EJxxLD10fFxVw26-41" style="edgeStyle=orthogonalEdgeStyle;rounded=0;orthogonalLoop=1;jettySize=auto;html=1;" edge="1" parent="1" source="PnFw1EJxxLD10fFxVw26-4" target="PnFw1EJxxLD10fFxVw26-8">
          <mxGeometry relative="1" as="geometry" />
        </mxCell>
        <mxCell id="PnFw1EJxxLD10fFxVw26-4" value="Prometheus" style="rounded=0;whiteSpace=wrap;html=1;" vertex="1" parent="1">
          <mxGeometry x="350" y="290" width="120" height="60" as="geometry" />
        </mxCell>
        <mxCell id="PnFw1EJxxLD10fFxVw26-8" value="Grafana" style="rounded=0;whiteSpace=wrap;html=1;" vertex="1" parent="1">
          <mxGeometry x="350" y="390" width="120" height="60" as="geometry" />
        </mxCell>
        <mxCell id="PnFw1EJxxLD10fFxVw26-11" value="Changes" style="edgeStyle=orthogonalEdgeStyle;rounded=0;orthogonalLoop=1;jettySize=auto;html=1;" edge="1" parent="1" source="PnFw1EJxxLD10fFxVw26-10" target="PnFw1EJxxLD10fFxVw26-2">
          <mxGeometry relative="1" as="geometry" />
        </mxCell>
        <mxCell id="PnFw1EJxxLD10fFxVw26-10" value="Developer" style="shape=umlActor;verticalLabelPosition=bottom;verticalAlign=top;html=1;outlineConnect=0;" vertex="1" parent="1">
          <mxGeometry x="130" y="-60" width="30" height="60" as="geometry" />
        </mxCell>
        <mxCell id="PnFw1EJxxLD10fFxVw26-16" value="Image repository" style="rounded=0;whiteSpace=wrap;html=1;" vertex="1" parent="1">
          <mxGeometry x="300" y="150" width="120" height="60" as="geometry" />
        </mxCell>
        <mxCell id="PnFw1EJxxLD10fFxVw26-39" value="Deploys&amp;nbsp;&lt;div&gt;updated&amp;nbsp;&lt;div&gt;image&lt;/div&gt;&lt;/div&gt;" style="edgeStyle=orthogonalEdgeStyle;rounded=0;orthogonalLoop=1;jettySize=auto;html=1;entryX=0;entryY=0.5;entryDx=0;entryDy=0;" edge="1" parent="1" source="PnFw1EJxxLD10fFxVw26-18" target="PnFw1EJxxLD10fFxVw26-38">
          <mxGeometry relative="1" as="geometry" />
        </mxCell>
        <mxCell id="PnFw1EJxxLD10fFxVw26-57" value="Pools&lt;div&gt;manifest&lt;/div&gt;" style="edgeStyle=orthogonalEdgeStyle;rounded=0;orthogonalLoop=1;jettySize=auto;html=1;entryX=1;entryY=0.5;entryDx=0;entryDy=0;" edge="1" parent="1" source="PnFw1EJxxLD10fFxVw26-18" target="PnFw1EJxxLD10fFxVw26-2">
          <mxGeometry relative="1" as="geometry">
            <Array as="points">
              <mxPoint x="570" y="60" />
            </Array>
          </mxGeometry>
        </mxCell>
        <mxCell id="PnFw1EJxxLD10fFxVw26-18" value="Argo CD" style="rounded=0;whiteSpace=wrap;html=1;" vertex="1" parent="1">
          <mxGeometry x="510" y="150" width="120" height="60" as="geometry" />
        </mxCell>
        <mxCell id="PnFw1EJxxLD10fFxVw26-31" value="" style="curved=1;endArrow=classic;html=1;rounded=0;exitX=0.5;exitY=1;exitDx=0;exitDy=0;" edge="1" parent="1" source="PnFw1EJxxLD10fFxVw26-3" target="PnFw1EJxxLD10fFxVw26-4">
          <mxGeometry width="50" height="50" relative="1" as="geometry">
            <mxPoint x="100" y="350" as="sourcePoint" />
            <mxPoint x="150" y="300" as="targetPoint" />
            <Array as="points">
              <mxPoint x="230" y="310" />
            </Array>
          </mxGeometry>
        </mxCell>
        <mxCell id="PnFw1EJxxLD10fFxVw26-37" value="" style="curved=1;endArrow=classic;html=1;rounded=0;" edge="1" parent="1" source="PnFw1EJxxLD10fFxVw26-18" target="PnFw1EJxxLD10fFxVw26-4">
          <mxGeometry width="50" height="50" relative="1" as="geometry">
            <mxPoint x="280" y="470" as="sourcePoint" />
            <mxPoint x="330" y="420" as="targetPoint" />
            <Array as="points">
              <mxPoint x="460" y="250" />
            </Array>
          </mxGeometry>
        </mxCell>
        <mxCell id="PnFw1EJxxLD10fFxVw26-38" value="Application" style="rounded=0;whiteSpace=wrap;html=1;" vertex="1" parent="1">
          <mxGeometry x="720" y="150" width="120" height="60" as="geometry" />
        </mxCell>
        <mxCell id="PnFw1EJxxLD10fFxVw26-40" value="" style="curved=1;endArrow=classic;html=1;rounded=0;exitX=0.75;exitY=1;exitDx=0;exitDy=0;" edge="1" parent="1" source="PnFw1EJxxLD10fFxVw26-38" target="PnFw1EJxxLD10fFxVw26-4">
          <mxGeometry width="50" height="50" relative="1" as="geometry">
            <mxPoint x="470" y="470" as="sourcePoint" />
            <mxPoint x="520" y="420" as="targetPoint" />
            <Array as="points">
              <mxPoint x="570" y="290" />
            </Array>
          </mxGeometry>
        </mxCell>
        <mxCell id="PnFw1EJxxLD10fFxVw26-49" value="Updates manifest" style="curved=1;endArrow=classic;html=1;rounded=0;exitX=1;exitY=0;exitDx=0;exitDy=0;" edge="1" parent="1" source="PnFw1EJxxLD10fFxVw26-3" target="PnFw1EJxxLD10fFxVw26-2">
          <mxGeometry width="50" height="50" relative="1" as="geometry">
            <mxPoint x="280" y="160" as="sourcePoint" />
            <mxPoint x="330" y="110" as="targetPoint" />
            <Array as="points">
              <mxPoint x="230" y="100" />
            </Array>
          </mxGeometry>
        </mxCell>
        <mxCell id="PnFw1EJxxLD10fFxVw26-54" value="Dowloads&amp;nbsp;&lt;div&gt;image&lt;/div&gt;" style="endArrow=classic;startArrow=classic;html=1;rounded=0;" edge="1" parent="1" source="PnFw1EJxxLD10fFxVw26-16" target="PnFw1EJxxLD10fFxVw26-18">
          <mxGeometry width="50" height="50" relative="1" as="geometry">
            <mxPoint x="440" y="210" as="sourcePoint" />
            <mxPoint x="490" y="160" as="targetPoint" />
          </mxGeometry>
        </mxCell>
      </root>
    </mxGraphModel>
  </diagram>
</mxfile>
